<svg width="69" height="82" viewBox="0 0 69 82" fill="none" xmlns="http://www.w3.org/2000/svg">
<path d="M65.3415 58.7295L43.8867 71.1339L38.1487 67.8316L59.6167 55.4195V55.4044L65.3415 52.0016V58.7295ZM12.948 64.1286V57.5087L32.6642 68.9131V75.5339L12.948 64.1286ZM3.61158 56.6431V33.8002L9.33639 30.5253V53.3341L3.61158 56.6431ZM3.61158 23.054L25.1118 10.6268L30.8338 13.9283L10.2852 25.8166L3.61158 29.6361V23.054ZM56.0051 17.6568V24.2776L36.2757 12.8704V6.26094L56.0051 17.6568ZM59.6167 28.4503L65.3415 25.1423V47.7958L59.6167 51.1995V28.4503ZM43.882 60.3404L38.1449 57.0399L50.2784 50.027V33.8466L56.0051 30.5376V53.3322L43.882 60.3404ZM14.7632 54.374L20.4795 51.0716L34.4766 59.1604L34.4841 59.1556L40.2525 62.4381L34.5276 65.7481L14.7632 54.374ZM25.2442 21.3399L30.8934 24.6356L18.6737 31.765V47.9397L12.948 51.2468V28.4532L25.2442 21.3399ZM22.2853 47.9151V33.841L34.4794 26.7277L46.6669 33.841V47.9407L34.5258 54.9583L22.2853 47.9151ZM54.1937 27.4086L48.4764 30.7138L28.8463 19.2564L34.4491 16.0156L54.1937 27.4086ZM59.6167 24.2748V15.5704L32.6642 -1.52588e-05V10.8125L25.1099 6.45319L0 20.9667V31.7035V33.1913V62.9031L9.33639 57.5097V66.215L36.2757 81.7977V70.9256L43.8905 75.3076L68.9531 60.8158V49.8546V48.8252V18.8785L59.6167 24.2748Z" fill="#01C38D"/>
</svg>
